<?xml version="1.0" encoding="UTF-8"?>
<svg id="Camada_1" data-name="Camada 1" xmlns="http://www.w3.org/2000/svg" viewBox="0 0 443.99 444.58">
  <defs>
    <style>
      .cls-1 {
        fill: none;
        stroke: #fff;
        stroke-miterlimit: 10;
        stroke-width: 3px;
      }
    </style>
  </defs>
  <path class="cls-1" d="M194.43,122.57c35.07,20.25,47.08,65.09,26.84,100.16-20.25,35.07-65.09,47.08-100.16,26.84-35.07-20.25-47.08-65.09-26.84-100.16,20.25-35.07,65.09-47.08,100.16-26.84Z"/>
  <path class="cls-1" d="M322.35,196.42c-35.07-20.24-79.91-8.23-100.16,26.84-20.24,35.07-8.23,79.91,26.84,100.16,35.07,20.24,79.91,8.23,100.16-26.84,20.24-35.07,8.23-79.91-26.84-100.16Z"/>
  <path class="cls-1" d="M121.11,196.42c35.07-20.24,79.91-8.23,100.16,26.84,20.24,35.07,8.23,79.91-26.84,100.16-35.07,20.24-79.91,8.23-100.16-26.84-20.24-35.07-8.23-79.91,26.84-100.16Z"/>
  <path class="cls-1" d="M249.03,122.57c-35.07,20.25-47.08,65.09-26.84,100.16,20.25,35.07,65.09,47.08,100.16,26.84,35.07-20.25,47.08-65.09,26.84-100.16-20.25-35.07-65.09-47.08-100.16-26.84Z"/>
  <path class="cls-1" d="M194.69,269.22c35.07,20.25,47.08,65.09,26.84,100.16-20.25,35.07-65.09,47.08-100.16,26.84-35.07-20.25-47.08-65.09-26.84-100.16,20.25-35.07,65.09-47.08,100.16-26.84h0Z"/>
  <path class="cls-1" d="M295.32,295.79c0,40.49-32.83,73.32-73.32,73.32-40.49,0-73.32-32.83-73.32-73.32s32.83-73.32,73.32-73.32h0c40.49,0,73.32,32.83,73.32,73.32h0s0,0,0,0Z"/>
  <path class="cls-1" d="M285.76,405.84c20.24-35.07,8.23-79.91-26.84-100.16-35.07-20.24-79.91-8.23-100.16,26.84-20.24,35.07-8.23,79.91,26.84,100.16,35.07,20.24,79.91,8.23,100.16-26.84Z"/>
  <path class="cls-1" d="M249.29,269.22c-35.07,20.25-47.08,65.09-26.84,100.16,20.25,35.07,65.09,47.08,100.16,26.84,35.07-20.25,47.08-65.09,26.84-100.16-20.25-35.07-65.09-47.08-100.16-26.84h0Z"/>
  <path class="cls-1" d="M322.61,48.72c-35.07-20.24-79.91-8.23-100.16,26.84-20.24,35.07-8.23,79.91,26.84,100.16,35.07,20.24,79.91,8.23,100.16-26.84,20.24-35.07,8.23-79.91-26.84-100.16Z"/>
  <path class="cls-1" d="M295.32,149.15c0-40.49-32.83-73.32-73.32-73.32h0c-40.49,0-73.32,32.83-73.32,73.32s32.83,73.32,73.32,73.32,73.32-32.83,73.32-73.32h0Z"/>
  <path class="cls-1" d="M285.76,111.49c20.24-35.07,8.23-79.91-26.84-100.16-35.07-20.24-79.91-8.23-100.16,26.84-20.24,35.07-8.23,79.91,26.84,100.16,35.07,20.24,79.91,8.23,100.16-26.84h0Z"/>
  <path class="cls-1" d="M121.37,48.72c35.07-20.24,79.91-8.23,100.16,26.84,20.24,35.07,8.23,79.91-26.84,100.16-35.07,20.24-79.91,8.23-100.16-26.84-20.24-35.07-8.23-79.91,26.84-100.16h0Z"/>
  <path class="cls-1" d="M167.93,222.39c0,40.49-32.83,73.32-73.32,73.32s-73.32-32.83-73.32-73.32c0-40.49,32.83-73.32,73.32-73.32s73.32,32.83,73.32,73.32Z"/>
  <path class="cls-1" d="M95.13,369.56c40.49,0,73.32-32.83,73.32-73.32s-32.83-73.32-73.32-73.32-73.32,32.83-73.32,73.32,32.83,73.32,73.32,73.32Z"/>
  <path class="cls-1" d="M350.05,222.39c40.49,0,73.32-32.83,73.32-73.32h0c0-40.49-32.83-73.32-73.32-73.32h0c-40.49,0-73.32,32.83-73.32,73.32h0c0,40.49,32.83,73.32,73.32,73.32h0Z"/>
  <path class="cls-1" d="M31.37,186.19c20.25,35.07,65.09,47.08,100.16,26.84,35.07-20.25,47.08-65.09,26.84-100.16-20.25-35.07-65.09-47.08-100.16-26.84-35.07,20.25-47.08,65.09-26.84,100.16Z"/>
  <path class="cls-1" d="M286.28,333.36c20.25,35.07,65.09,47.08,100.16,26.84,35.07-20.25,47.08-65.09,26.84-100.16-20.25-35.07-65.09-47.08-100.16-26.84-35.07,20.25-47.08,65.09-26.84,100.16h0Z"/>
  <path class="cls-1" d="M222,2.04C100.22,2.04,1.5,100.76,1.5,222.54s98.72,220.5,220.5,220.5c121.78,0,220.5-98.72,220.5-220.5S343.77,2.04,222,2.04Z"/>
  <path class="cls-1" d="M222,295.86c40.49,0,73.32-32.83,73.32-73.32h0c0-40.49-32.83-73.32-73.32-73.32h0c-40.49,0-73.32,32.83-73.32,73.32s32.83,73.32,73.32,73.32Z"/>
  <path class="cls-1" d="M422.84,222.92c0-40.49-32.83-73.32-73.32-73.32h0c-40.49,0-73.32,32.83-73.32,73.32h0c0,40.49,32.83,73.32,73.32,73.32h0c40.49,0,73.32-32.83,73.32-73.32h0Z"/>
  <path class="cls-1" d="M285.28,406.61c-13.12-22.53-37.21-36.41-63.29-36.44h0c-26.08.04-50.18,13.93-63.29,36.48"/>
  <path class="cls-1" d="M156.3,333.26c-12.28.29-24.29,3.66-34.93,9.8-11.21,6.51-20.5,15.88-26.91,27.15,6.41,11,15.57,20.14,26.58,26.53,11.42,6.56,24.39,9.92,37.55,9.73,6.4,11.09,15.6,20.3,26.67,26.73,11.05,6.36,23.56,9.72,36.31,9.76,12.99-22.63,12.97-50.46-.04-73.07-13.41-23.22-38.42-37.27-65.23-36.64h0Z"/>
  <path class="cls-1" d="M158.16,406.48c6.37-11.07,9.74-23.61,9.77-36.38,0-40.49-32.83-73.32-73.32-73.32h0c-26.1.04-50.2,13.94-63.31,36.51"/>
  <path class="cls-1" d="M93.94,370.07c13.25-22.71,13.33-50.78.2-73.56-12.48-21.62-35.1-35.4-60.04-36.58h0c-1.01-.02-2.01-.02-3.02,0,.07.13.14.25.21.38"/>
  <path class="cls-1" d="M30.85,332.55c26.11-.05,50.21-13.98,63.3-36.57,20.25-35.07,8.23-79.91-26.84-100.16-11.14-6.39-23.76-9.75-36.6-9.73h0c.04.07.08.15.12.22"/>
  <path class="cls-1" d="M30.67,259.22c12.85.02,25.49-3.33,36.63-9.73,35.07-20.25,47.09-65.09,26.84-100.16-12.48-21.62-35.11-35.4-60.04-36.58h0c-.88-.01-1.76-.01-2.64,0"/>
  <path class="cls-1" d="M31.01,260.23c6.68-11.27,10.22-24.12,10.25-37.22,0-12.28-3.09-24.37-8.98-35.15h0c-.35-.59-.71-1.18-1.08-1.77"/>
  <path class="cls-1" d="M31.01,334.37c6.68-11.27,10.22-24.12,10.25-37.22,0-12.28-3.09-24.37-8.98-35.15h0c-.35-.59-.71-1.18-1.08-1.77"/>
  <path class="cls-1" d="M31.01,186.08c6.68-11.27,10.22-24.12,10.25-37.22,0-12.28-3.09-24.37-8.98-35.15-.35-.59-.71-1.18-1.08-1.77"/>
  <path class="cls-1" d="M412.97,260.23c-6.68-11.27-10.22-24.12-10.25-37.22,0-12.28,3.09-24.37,8.98-35.15.35-.59.71-1.18,1.08-1.77"/>
  <path class="cls-1" d="M412.97,334.37c-6.68-11.27-10.22-24.12-10.25-37.22,0-12.28,3.09-24.37,8.98-35.15.35-.59.71-1.18,1.08-1.77"/>
  <path class="cls-1" d="M412.97,186.08c-6.68-11.27-10.22-24.12-10.25-37.22,0-12.28,3.09-24.37,8.98-35.15.35-.59.71-1.18,1.08-1.77"/>
  <path class="cls-1" d="M159.14,406.78c-6.42-11.42-15.78-20.91-27.11-27.49-10.64-6.14-22.65-9.51-34.93-9.8-.69,0-1.38.03-2.07.05"/>
  <path class="cls-1" d="M223.35,443.85c-6.42-11.42-15.78-20.91-27.11-27.49-10.64-6.14-22.65-9.51-34.93-9.8-.69,0-1.38.03-2.07.05"/>
  <path class="cls-1" d="M94.93,369.71c-6.42-11.42-15.78-20.91-27.11-27.49-10.64-6.14-22.65-9.51-34.93-9.8h0c-.69,0-1.38.03-2.07.05"/>
  <path class="cls-1" d="M350.12,75.98c-13.1.15-26-3.21-37.36-9.73-10.64-6.14-19.56-14.86-25.95-25.35h0c-.34-.6-.67-1.21-.99-1.82"/>
  <path class="cls-1" d="M351.02,77.98c-.34-.6-.67-1.21-.99-1.82,13.1-.15,26,3.21,37.36,9.73,11.23,6.51,20.53,15.89,26.94,27.17-13.1.15-26-3.21-37.36-9.73-10.64-6.14-19.56-14.86-25.95-25.35h0Z"/>
  <path class="cls-1" d="M285.91,38.92c-13.1.15-26-3.21-37.36-9.73-10.64-6.14-19.56-14.86-25.95-25.35h0c-.34-.6-.67-1.21-.99-1.82"/>
  <path class="cls-1" d="M349.94,369.55c-13.1-.15-26,3.21-37.36,9.73-10.64,6.14-19.56,14.86-25.95,25.35h0c-.34.6-.67,1.21-.99,1.82"/>
  <path class="cls-1" d="M414.14,332.47c-13.1-.15-26,3.21-37.36,9.73-10.64,6.14-19.56,14.86-25.95,25.35-.34.6-.67,1.21-.99,1.82"/>
  <path class="cls-1" d="M285.73,406.61c-13.1-.15-26,3.21-37.36,9.73-10.64,6.14-19.56,14.86-25.95,25.35h0c-.34.6-.67,1.21-.99,1.82"/>
  <path class="cls-1" d="M158.96,38.75c-6.42,11.42-15.78,20.91-27.11,27.49-10.64,6.14-22.65,9.51-34.93,9.8-.69,0-1.38-.03-2.07-.05"/>
  <path class="cls-1" d="M223.17,1.68c-6.42,11.42-15.78,20.91-27.11,27.49-10.64,6.14-22.65,9.51-34.93,9.8h0c-.69,0-1.38-.03-2.07-.05"/>
  <path class="cls-1" d="M94.74,75.83c-6.42,11.42-15.78,20.91-27.11,27.49-10.64,6.14-22.65,9.51-34.93,9.8h0c-.69,0-1.38-.03-2.07-.05"/>
  <path class="cls-1" d="M158.71,38.46c13.12,22.53,37.21,36.41,63.29,36.44,26.08-.04,50.18-13.93,63.29-36.48"/>
  <path class="cls-1" d="M31.3,111.95c13.1,22.56,37.21,36.46,63.3,36.5,26.81,0,51.49-14.64,64.34-38.17h0c5.89-10.78,8.98-22.87,8.98-35.15-.03-12.97-3.5-25.69-10.05-36.88"/>
  <path class="cls-1" d="M94.62,75.28c6.4,11.05,15.58,20.24,26.63,26.65,35.07,20.25,79.91,8.23,100.16-26.84h0c13.02-22.62,13.03-50.45.03-73.08"/>
  <path class="cls-1" d="M222.3,1.99c-13.01,22.63-13,50.48.02,73.1,20.25,35.07,65.09,47.09,100.16,26.84,11.11-6.45,20.32-15.7,26.73-26.83h0c-.08,0-.17,0-.25-.01"/>
  <path class="cls-1" d="M285.89,38.5c-6.45,11.12-9.86,23.74-9.89,36.59,0,40.5,32.83,73.32,73.32,73.32,24.96,0,48.21-12.7,61.7-33.71h0c.45-.75.89-1.52,1.31-2.29"/>
  <path class="cls-1" d="M413.55,113.11c-26.09.07-50.18,13.99-63.26,36.57-13.41,23.22-13.07,51.91.88,74.81h0c6.39,10.49,15.32,19.21,25.95,25.35,11.24,6.46,24,9.82,36.97,9.73"/>
  <path class="cls-1" d="M413.65,186.29c-12.77.02-25.32,3.37-36.4,9.73-35.07,20.25-47.09,65.09-26.84,100.16,13.08,22.58,37.18,36.51,63.27,36.57"/>
  <path class="cls-1" d="M414.23,260.11c-26.29-.12-50.64,13.84-63.81,36.6-12.48,21.62-13.11,48.1-1.66,70.29h0c.49.88.99,1.75,1.52,2.61.07-.12.15-.25.22-.37"/>
  <path class="cls-1" d="M349.87,370.32c-6.41-11.14-15.63-20.4-26.74-26.86-35.07-20.25-79.91-8.23-100.16,26.84-12.48,21.62-13.11,48.1-1.66,70.29h0c.43.77.87,1.53,1.32,2.28"/>
  <path class="cls-1" d="M286.72,406.48c-6.37-11.07-9.74-23.61-9.77-36.38,0-40.49,32.83-73.32,73.32-73.32,26.1.04,50.2,13.94,63.31,36.51"/>
  <path class="cls-1" d="M414.23,185.83c-26.29.12-50.64-13.84-63.81-36.6-12.48-21.62-13.11-48.1-1.66-70.29h0c.49-.88.99-1.75,1.52-2.61.07.12.15.25.22.37"/>
  <path class="cls-1" d="M30.79,185.83c26.29.12,50.64-13.84,63.81-36.6,12.48-21.62,13.11-48.1,1.66-70.29h0c-.49-.88-.99-1.75-1.52-2.61-.07.12-.15.25-.22.37"/>
</svg>