<?xml version="1.0" encoding="UTF-8"?>
<svg id="Camada_1" data-name="Camada 1" xmlns="http://www.w3.org/2000/svg" viewBox="0 0 90.14 90.25">
  <defs>
    <style>
      .cls-1 {
        fill: none;
        stroke: #fff;
        stroke-miterlimit: 10;
        stroke-width: .75px;
      }
    </style>
  </defs>
  <path class="cls-1" d="M39.48,24.92c7.11,4.1,9.54,13.19,5.44,20.3-4.1,7.11-13.19,9.54-20.3,5.44-7.11-4.1-9.54-13.19-5.44-20.3,4.1-7.11,13.19-9.54,20.3-5.44Z"/>
  <path class="cls-1" d="M65.41,39.89c-7.11-4.1-16.2-1.67-20.3,5.44-4.1,7.11-1.67,16.2,5.44,20.3,7.11,4.1,16.2,1.67,20.3-5.44,4.1-7.11,1.67-16.2-5.44-20.3Z"/>
  <path class="cls-1" d="M24.62,39.89c7.11-4.1,16.2-1.67,20.3,5.44,4.1,7.11,1.67,16.2-5.44,20.3-7.11,4.1-16.2,1.67-20.3-5.44-4.1-7.11-1.67-16.2,5.44-20.3Z"/>
  <path class="cls-1" d="M50.55,24.92c-7.11,4.1-9.54,13.19-5.44,20.3,4.1,7.11,13.19,9.54,20.3,5.44,7.11-4.1,9.54-13.19,5.44-20.3-4.1-7.11-13.19-9.54-20.3-5.44Z"/>
  <path class="cls-1" d="M39.53,54.64c7.11,4.1,9.54,13.19,5.44,20.3-4.1,7.11-13.19,9.54-20.3,5.44-7.11-4.1-9.54-13.19-5.44-20.3,4.1-7.11,13.19-9.54,20.3-5.44h0Z"/>
  <path class="cls-1" d="M59.93,60.03c0,8.21-6.65,14.86-14.86,14.86-8.21,0-14.86-6.65-14.86-14.86s6.65-14.86,14.86-14.86h0c8.21,0,14.86,6.65,14.86,14.86h0s0,0,0,0Z"/>
  <path class="cls-1" d="M57.99,82.33c4.1-7.11,1.67-16.2-5.44-20.3-7.11-4.1-16.2-1.67-20.3,5.44-4.1,7.11-1.67,16.2,5.44,20.3,7.11,4.1,16.2,1.67,20.3-5.44Z"/>
  <path class="cls-1" d="M50.6,54.64c-7.11,4.1-9.54,13.19-5.44,20.3,4.1,7.11,13.19,9.54,20.3,5.44,7.11-4.1,9.54-13.19,5.44-20.3-4.1-7.11-13.19-9.54-20.3-5.44h0Z"/>
  <path class="cls-1" d="M65.46,9.95c-7.11-4.1-16.2-1.67-20.3,5.44-4.1,7.11-1.67,16.2,5.44,20.3,7.11,4.1,16.2,1.67,20.3-5.44,4.1-7.11,1.67-16.2-5.44-20.3Z"/>
  <path class="cls-1" d="M59.93,30.3c0-8.21-6.65-14.86-14.86-14.86h0c-8.21,0-14.86,6.65-14.86,14.86s6.65,14.86,14.86,14.86,14.86-6.65,14.86-14.86h0Z"/>
  <path class="cls-1" d="M57.99,22.67c4.1-7.11,1.67-16.2-5.44-20.3-7.11-4.1-16.2-1.67-20.3,5.44-4.1,7.11-1.67,16.2,5.44,20.3,7.11,4.1,16.2,1.67,20.3-5.44h0Z"/>
  <path class="cls-1" d="M24.67,9.95c7.11-4.1,16.2-1.67,20.3,5.44,4.1,7.11,1.67,16.2-5.44,20.3-7.11,4.1-16.2,1.67-20.3-5.44-4.1-7.11-1.67-16.2,5.44-20.3h0Z"/>
  <path class="cls-1" d="M34.11,45.15c0,8.21-6.65,14.86-14.86,14.86s-14.86-6.65-14.86-14.86c0-8.21,6.65-14.86,14.86-14.86s14.86,6.65,14.86,14.86Z"/>
  <path class="cls-1" d="M19.35,74.98c8.21,0,14.86-6.65,14.86-14.86s-6.65-14.86-14.86-14.86-14.86,6.65-14.86,14.86,6.65,14.86,14.86,14.86Z"/>
  <path class="cls-1" d="M71.02,45.15c8.21,0,14.86-6.65,14.86-14.86h0c0-8.21-6.65-14.86-14.86-14.86h0c-8.21,0-14.86,6.65-14.86,14.86h0c0,8.21,6.65,14.86,14.86,14.86h0Z"/>
  <path class="cls-1" d="M6.43,37.81c4.1,7.11,13.19,9.54,20.3,5.44,7.11-4.1,9.54-13.19,5.44-20.3-4.1-7.11-13.19-9.54-20.3-5.44-7.11,4.1-9.54,13.19-5.44,20.3Z"/>
  <path class="cls-1" d="M58.1,67.64c4.1,7.11,13.19,9.54,20.3,5.44,7.11-4.1,9.54-13.19,5.44-20.3-4.1-7.11-13.19-9.54-20.3-5.44-7.11,4.1-9.54,13.19-5.44,20.3h0Z"/>
  <path class="cls-1" d="M45.07.48C20.39.48.38,20.49.38,45.18s20.01,44.69,44.69,44.69c24.68,0,44.69-20.01,44.69-44.69S69.75.48,45.07.48Z"/>
  <path class="cls-1" d="M45.07,60.04c8.21,0,14.86-6.65,14.86-14.86h0c0-8.21-6.65-14.86-14.86-14.86h0c-8.21,0-14.86,6.65-14.86,14.86s6.65,14.86,14.86,14.86Z"/>
  <path class="cls-1" d="M85.78,45.26c0-8.21-6.65-14.86-14.86-14.86h0c-8.21,0-14.86,6.65-14.86,14.86h0c0,8.21,6.65,14.86,14.86,14.86h0c8.21,0,14.86-6.65,14.86-14.86h0Z"/>
  <path class="cls-1" d="M57.9,82.49c-2.66-4.57-7.54-7.38-12.83-7.39h0c-5.29,0-10.17,2.82-12.83,7.39"/>
  <path class="cls-1" d="M31.75,67.62c-2.49.06-4.92.74-7.08,1.99-2.27,1.32-4.16,3.22-5.46,5.5,1.3,2.23,3.16,4.08,5.39,5.38,2.31,1.33,4.94,2.01,7.61,1.97,1.3,2.25,3.16,4.12,5.41,5.42,2.24,1.29,4.78,1.97,7.36,1.98,2.63-4.59,2.63-10.23,0-14.81-2.72-4.71-7.79-7.56-13.22-7.43h0Z"/>
  <path class="cls-1" d="M32.13,82.46c1.29-2.24,1.97-4.79,1.98-7.38,0-8.21-6.65-14.86-14.86-14.86h0c-5.29,0-10.18,2.83-12.83,7.4"/>
  <path class="cls-1" d="M19.11,75.08c2.69-4.6,2.7-10.29.04-14.91-2.53-4.38-7.12-7.18-12.17-7.41h0c-.2,0-.41,0-.61,0,.01.03.03.05.04.08"/>
  <path class="cls-1" d="M6.32,67.48c5.29-.01,10.18-2.83,12.83-7.41,4.1-7.11,1.67-16.2-5.44-20.3-2.26-1.3-4.82-1.98-7.42-1.97h0s.02.03.02.05"/>
  <path class="cls-1" d="M6.29,52.61c2.61,0,5.17-.68,7.43-1.97,7.11-4.1,9.54-13.19,5.44-20.3-2.53-4.38-7.12-7.18-12.17-7.41h0c-.18,0-.36,0-.53,0"/>
  <path class="cls-1" d="M6.36,52.82c1.35-2.28,2.07-4.89,2.08-7.54,0-2.49-.63-4.94-1.82-7.13h0c-.07-.12-.14-.24-.22-.36"/>
  <path class="cls-1" d="M6.36,67.85c1.35-2.28,2.07-4.89,2.08-7.54,0-2.49-.63-4.94-1.82-7.13h0c-.07-.12-.14-.24-.22-.36"/>
  <path class="cls-1" d="M6.36,37.79c1.35-2.28,2.07-4.89,2.08-7.54,0-2.49-.63-4.94-1.82-7.13-.07-.12-.14-.24-.22-.36"/>
  <path class="cls-1" d="M83.78,52.82c-1.35-2.28-2.07-4.89-2.08-7.54,0-2.49.63-4.94,1.82-7.13.07-.12.14-.24.22-.36"/>
  <path class="cls-1" d="M83.78,67.85c-1.35-2.28-2.07-4.89-2.08-7.54,0-2.49.63-4.94,1.82-7.13.07-.12.14-.24.22-.36"/>
  <path class="cls-1" d="M83.78,37.79c-1.35-2.28-2.07-4.89-2.08-7.54,0-2.49.63-4.94,1.82-7.13.07-.12.14-.24.22-.36"/>
  <path class="cls-1" d="M32.33,82.52c-1.3-2.31-3.2-4.24-5.5-5.57-2.16-1.24-4.59-1.93-7.08-1.99-.14,0-.28,0-.42.01"/>
  <path class="cls-1" d="M45.34,90.04c-1.3-2.31-3.2-4.24-5.5-5.57-2.16-1.24-4.59-1.93-7.08-1.99-.14,0-.28,0-.42.01"/>
  <path class="cls-1" d="M19.31,75.01c-1.3-2.31-3.2-4.24-5.5-5.57-2.16-1.24-4.59-1.93-7.08-1.99h0c-.14,0-.28,0-.42.01"/>
  <path class="cls-1" d="M71.04,15.47c-2.66.03-5.27-.65-7.57-1.97-2.16-1.25-3.97-3.01-5.26-5.14h0c-.07-.12-.14-.25-.2-.37"/>
  <path class="cls-1" d="M71.22,15.88c-.07-.12-.14-.25-.2-.37,2.66-.03,5.27.65,7.57,1.97,2.28,1.32,4.16,3.22,5.46,5.51-2.66.03-5.27-.65-7.57-1.97-2.16-1.24-3.97-3.01-5.26-5.14h0Z"/>
  <path class="cls-1" d="M58.02,7.96c-2.66.03-5.27-.65-7.57-1.97-2.16-1.25-3.97-3.01-5.26-5.14h0c-.07-.12-.14-.25-.2-.37"/>
  <path class="cls-1" d="M71,74.98c-2.66-.03-5.27.65-7.57,1.97-2.16,1.24-3.97,3.01-5.26,5.14h0c-.07.12-.14.25-.2.37"/>
  <path class="cls-1" d="M84.02,67.46c-2.66-.03-5.27.65-7.57,1.97-2.16,1.25-3.97,3.01-5.26,5.14-.07.12-.14.25-.2.37"/>
  <path class="cls-1" d="M57.99,82.49c-2.66-.03-5.27.65-7.57,1.97-2.16,1.24-3.97,3.01-5.26,5.14h0c-.07.12-.14.25-.2.37"/>
  <path class="cls-1" d="M32.29,7.93c-1.3,2.31-3.2,4.24-5.5,5.57-2.16,1.24-4.59,1.93-7.08,1.99-.14,0-.28,0-.42-.01"/>
  <path class="cls-1" d="M45.31.41c-1.3,2.31-3.2,4.24-5.5,5.57-2.16,1.24-4.59,1.93-7.08,1.99h0c-.14,0-.28,0-.42-.01"/>
  <path class="cls-1" d="M19.28,15.44c-1.3,2.31-3.2,4.24-5.5,5.57-2.16,1.24-4.59,1.93-7.08,1.99h0c-.14,0-.28,0-.42-.01"/>
  <path class="cls-1" d="M32.24,7.87c2.66,4.57,7.54,7.38,12.83,7.39,5.29,0,10.17-2.82,12.83-7.39"/>
  <path class="cls-1" d="M6.42,22.76c2.66,4.57,7.54,7.39,12.83,7.4,5.44,0,10.44-2.97,13.04-7.74h0c1.19-2.19,1.82-4.64,1.82-7.13,0-2.63-.71-5.21-2.04-7.48"/>
  <path class="cls-1" d="M19.25,15.33c1.3,2.24,3.16,4.1,5.4,5.4,7.11,4.1,16.2,1.67,20.3-5.44h0c2.64-4.58,2.64-10.23,0-14.81"/>
  <path class="cls-1" d="M45.13.47c-2.64,4.59-2.64,10.23,0,14.82,4.1,7.11,13.19,9.54,20.3,5.44,2.25-1.31,4.12-3.18,5.42-5.44h0s-.03,0-.05,0"/>
  <path class="cls-1" d="M58.02,7.88c-1.31,2.25-2,4.81-2,7.42,0,8.21,6.65,14.86,14.86,14.86,5.06,0,9.77-2.57,12.51-6.83h0c.09-.15.18-.31.27-.46"/>
  <path class="cls-1" d="M83.9,23c-5.29.01-10.17,2.84-12.82,7.41-2.72,4.71-2.65,10.52.18,15.16h0c1.3,2.13,3.1,3.89,5.26,5.14,2.28,1.31,4.86,1.99,7.49,1.97"/>
  <path class="cls-1" d="M83.92,37.83c-2.59,0-5.13.68-7.38,1.97-7.11,4.1-9.54,13.19-5.44,20.3,2.65,4.58,7.54,7.4,12.83,7.41"/>
  <path class="cls-1" d="M84.03,52.79c-5.33-.02-10.26,2.81-12.93,7.42-2.53,4.38-2.66,9.75-.34,14.25h0c.1.18.2.36.31.53.01-.03.03-.05.04-.08"/>
  <path class="cls-1" d="M70.99,75.13c-1.3-2.26-3.17-4.14-5.42-5.44-7.11-4.1-16.2-1.67-20.3,5.44-2.53,4.38-2.66,9.75-.34,14.25h0c.09.16.18.31.27.46"/>
  <path class="cls-1" d="M58.19,82.46c-1.29-2.24-1.97-4.79-1.98-7.38,0-8.21,6.65-14.86,14.86-14.86,5.29,0,10.18,2.83,12.83,7.4"/>
  <path class="cls-1" d="M84.03,37.74c-5.33.02-10.26-2.81-12.93-7.42-2.53-4.38-2.66-9.75-.34-14.25h0c.1-.18.2-.36.31-.53.01.03.03.05.04.08"/>
  <path class="cls-1" d="M6.31,37.74c5.33.02,10.26-2.81,12.93-7.42,2.53-4.38,2.66-9.75.34-14.25h0c-.1-.18-.2-.36-.31-.53-.01.03-.03.05-.04.08"/>
</svg>